<svg width="83" height="31" viewBox="0 0 83 31" fill="none" xmlns="http://www.w3.org/2000/svg">
<g clip-path="url(#clip0_247_2477)">
<rect y="4.26" width="22.2046" height="22.2045" rx="4.83848" fill="url(#paint0_linear_247_2477)"/>
<mask id="mask0_247_2477" style="mask-type:alpha" maskUnits="userSpaceOnUse" x="1" y="4" width="22" height="21">
<path d="M1.1013 4.26002C8.44721 4.26002 22.2044 4.26002 22.2044 4.26002C22.2044 4.26002 22.2044 18.9826 22.2044 24.8335C18.8254 17.7758 15.3956 18.1405 12.0675 14.8796C7.16629 10.0773 5.30961 5.46679 1.1013 4.26002Z" fill="#D9D9D9"/>
</mask>
<g mask="url(#mask0_247_2477)">
<path d="M1.44801 4.26003H20.2736C21.34 4.26003 22.2044 5.12449 22.2044 6.19086V26.4646H3.37884C2.31247 26.4646 1.44801 25.6001 1.44801 24.5337V4.26003Z" fill="black" fill-opacity="0.47"/>
<rect opacity="0.4" x="1.44801" y="8.39106" width="16.8948" height="18.0735" rx="5.52969" fill="black"/>
</g>
<g clip-path="url(#clip1_247_2477)">
<path d="M0.744622 4.35461C1.60198 4.47426 2.43265 4.71141 3.21339 5.06994C4.18351 5.50765 5.07444 6.12097 5.8427 6.88924L19.6525 20.699C20.4208 21.4669 21.0341 22.3582 21.4718 23.3283C21.6577 23.7372 21.8152 24.1569 21.9358 24.589C19.5582 16.8478 5.69852 19.2516 5.69852 19.2516C8.83914 7.11304 3.34639 4.78846 0.744622 4.35461Z" fill="url(#paint1_linear_247_2477)"/>
<path d="M0.458176 4.31246C0.548559 4.32408 0.64454 4.33828 0.744392 4.35464C0.648844 4.34129 0.554155 4.32236 0.458176 4.31246Z" fill="url(#paint2_linear_247_2477)"/>
</g>
</g>
<path d="M75.738 23.4119C71.8837 23.4119 68.7484 20.6219 68.7484 16.0197C68.7484 11.4176 71.8837 8.71381 75.738 8.71381C79.5635 8.71381 82.7562 11.4176 82.7562 16.0197C82.7562 20.6219 79.5635 23.4119 75.738 23.4119ZM75.738 22.4052C78.2691 22.4052 79.7361 19.4713 79.7361 16.0197C79.7361 12.5969 78.2691 9.69176 75.738 9.69176C73.2068 9.69176 71.7686 12.5969 71.7686 16.0197C71.7686 19.4426 73.178 22.4052 75.738 22.4052Z" fill="white"/>
<path d="M65.1198 23.1818C64.9184 22.4339 64.6308 21.8874 64.487 20.9382C63.3077 22.6928 61.6969 23.4119 60.0286 23.4119C56.9222 23.4119 54.3047 20.8519 54.3047 16.1923C54.3047 11.2162 57.2386 8.74254 60.345 8.74254C61.927 8.74254 63.3939 9.4041 64.3719 10.756V6.26888C64.3719 4.6006 63.8254 3.04738 63.5378 2.41458V2.29953L64.2569 2.21324L67.1044 1.81055V19.0974C67.1044 20.7656 67.5359 22.4052 67.6797 23.0955V23.1818H65.1198ZM57.2673 16.0484C57.2673 19.1261 58.4179 21.9162 61.0353 21.9162C62.3872 21.9162 63.4515 21.1396 64.4007 20.0178C64.4007 19.8452 64.3719 19.6439 64.3719 19.4425V11.8202C63.5953 10.9573 62.5598 10.2958 61.2655 10.2958C58.7918 10.2958 57.2673 12.5968 57.2673 16.0484Z" fill="white"/>
<path d="M45.4083 23.3831C43.0497 23.3831 40.6911 22.06 40.6911 18.4933V12.9707C40.6911 11.3025 40.2596 9.66294 40.1158 9.00139V8.88633H43.3948V18.1769C43.3948 20.5643 44.8618 21.571 46.4725 21.571C47.6806 21.571 48.8886 20.967 50.0392 19.9027C50.0104 19.5863 50.0104 19.2699 50.0104 19.0398V12.9707C50.0104 11.3025 49.579 9.66294 49.4064 9.00139V8.88633H52.7142V19.0973C52.7142 20.7656 53.1456 22.4051 53.2894 23.0955V23.1818H50.4706C50.3556 22.7791 50.2118 21.7148 50.0967 20.7369C48.7736 22.5202 47.2491 23.3831 45.4083 23.3831Z" fill="white"/>
<path d="M27.4343 23.1818L35.3442 9.89305H32.6692C30.6845 9.89305 28.7286 11.5901 27.9233 11.9928H27.8082V8.88633H39.2273L31.2886 22.175H33.9636C35.9482 22.175 37.9042 20.478 38.7095 20.0465H38.8246V23.1818H27.4343Z" fill="white"/>
<defs>
<linearGradient id="paint0_linear_247_2477" x1="10.8102" y1="13.9015" x2="1.753" y2="25.0038" gradientUnits="userSpaceOnUse">
<stop stop-color="#0041C0"/>
<stop offset="0.35" stop-color="#9747FF"/>
<stop offset="1" stop-color="#FF9900"/>
</linearGradient>
<linearGradient id="paint1_linear_247_2477" x1="12.3146" y1="13.4976" x2="5.51387" y2="20.2983" gradientUnits="userSpaceOnUse">
<stop stop-color="#F9F9F9"/>
<stop offset="0.03" stop-color="#F1F1F1"/>
<stop offset="0.06" stop-color="#E1E1E1"/>
<stop offset="0.13" stop-color="#ACC1E8"/>
<stop offset="0.34" stop-color="#E9E9E9"/>
<stop offset="0.49" stop-color="#F6F6F6"/>
<stop offset="0.83" stop-color="#F6F6F6"/>
<stop offset="0.89" stop-color="#EFEFEF"/>
<stop offset="0.95" stop-color="#E1E1E1"/>
<stop offset="0.97" stop-color="#E6E6E6"/>
<stop offset="0.99" stop-color="#F4F4F4"/>
<stop offset="1" stop-color="#F9F9F9"/>
</linearGradient>
<linearGradient id="paint2_linear_247_2477" x1="0.601069" y1="4.35464" x2="0.601069" y2="4.31246" gradientUnits="userSpaceOnUse">
<stop stop-color="#F9F9F9"/>
<stop offset="0.03" stop-color="#F1F1F1"/>
<stop offset="0.06" stop-color="#E1E1E1"/>
<stop offset="0.13" stop-color="#D1D1D1"/>
<stop offset="0.34" stop-color="#E9E9E9"/>
<stop offset="0.49" stop-color="#F6F6F6"/>
<stop offset="0.83" stop-color="#F6F6F6"/>
<stop offset="0.89" stop-color="#EFEFEF"/>
<stop offset="0.95" stop-color="#E1E1E1"/>
<stop offset="0.97" stop-color="#E6E6E6"/>
<stop offset="0.99" stop-color="#F4F4F4"/>
<stop offset="1" stop-color="#F9F9F9"/>
</linearGradient>
<clipPath id="clip0_247_2477">
<rect y="4.26" width="22.2046" height="22.2045" rx="4.83848" fill="white"/>
</clipPath>
<clipPath id="clip1_247_2477">
<rect width="20.6762" height="22.1188" fill="white" transform="matrix(0 -1.00388 1.00388 0 -3.06359e-05 25.0165)"/>
</clipPath>
</defs>
</svg>
